<svg width="571" height="336" viewBox="0 0 571 336" fill="none" xmlns="http://www.w3.org/2000/svg">
<path d="M28.626 332.331C36.5054 332.591 46.9562 332.662 55.0117 331.719C64.9956 330.549 70.5962 328.837 79.9199 326.803C87.3704 325.177 92.1394 324.521 99.7734 322.131C118.209 316.358 127.511 310.173 142.355 299.744C154.473 291.231 168.59 276.544 174.568 270.105C177.893 266.525 175.223 260.944 170.546 260.944H67.5908C64.5424 260.944 62.1222 263.398 62.0537 266.372C61.9565 270.61 61.4656 279.905 59.335 285.812C55.4453 296.595 50.8243 302.189 41.2656 310.574C36.8824 314.419 28.9726 319.319 27.4521 320.248L23.6533 321.781C18.3968 323.904 19.3307 331.954 25.4209 332.21L28.626 332.331Z" fill="white" stroke="#7B219F" stroke-width="7"/>
<rect x="3.5" y="3.5" width="564" height="261.333" rx="32.5" fill="white" stroke="#7B219F" stroke-width="7"/>
<path d="M65.5 259.778L181 258.223L168.5 271.445H65.5V259.778Z" fill="white"/>
</svg>
